<svg xmlns="http://www.w3.org/2000/svg" width="77.191" height="54.676" viewBox="0 0 77.191 54.676">
  <g id="bed" transform="translate(0 -74.667)">
    <g id="Group_8" data-name="Group 8" transform="translate(0 74.667)">
      <g id="Group_7" data-name="Group 7">
        <path id="Path_4" data-name="Path 4" d="M44.275,93.965h8.041a1.607,1.607,0,0,1-1.56-2l1-4a4.817,4.817,0,0,1,4.68-3.654H66.789a4.83,4.83,0,0,1,4.824,4.824v3.216a1.609,1.609,0,0,1-1.608,1.608h9.649a1.609,1.609,0,0,1-1.608-1.608V89.14a4.83,4.83,0,0,1,4.824-4.824H93.223A4.817,4.817,0,0,1,97.9,87.97l1,4a1.607,1.607,0,0,1-1.56,2h8.041a1.609,1.609,0,0,0,1.608-1.608V82.708a8.052,8.052,0,0,0-8.041-8.041H50.708a8.052,8.052,0,0,0-8.041,8.041v9.649A1.609,1.609,0,0,0,44.275,93.965Z" transform="translate(-36.234 -74.667)" fill="#495057"/>
        <path id="Path_5" data-name="Path 5" d="M69.15,224H8.041A8.052,8.052,0,0,0,0,232.041v22.514a1.608,1.608,0,1,0,3.216,0V249.73H73.974v4.824a1.608,1.608,0,0,0,3.216,0V232.041A8.052,8.052,0,0,0,69.15,224Zm4.824,22.514H3.216V243.3H73.974v3.216Z" transform="translate(0 -201.486)" fill="#495057"/>
      </g>
    </g>
  </g>
</svg>
