<svg xmlns="http://www.w3.org/2000/svg" width="58.042" height="57.417" viewBox="0 0 58.042 57.417">
  <g id="curtain" transform="translate(-23.501 -25.033)">
    <path id="Path_6" data-name="Path 6" d="M52.67,26.395c-.382,1.943-.683,3.787-1.145,5.589A43.436,43.436,0,0,1,41.034,50.8c-1.42,1.527-3,2.924-4.547,4.337a1.6,1.6,0,0,1-1.069.382,34.636,34.636,0,0,1-8.608-1.661.931.931,0,0,1-.5-.653c-.363-2.447-.763-4.894-1-7.356a158.806,158.806,0,0,1-.5-18.965,3.5,3.5,0,0,0-.019-.428,1.771,1.771,0,0,1-.676-.076,1.271,1.271,0,0,1-.6-.634c-.084-.382.2-.634.592-.691a4.081,4.081,0,0,1,.573-.019H80.82c.412.027.7.221.722.657s-.241.657-.66.71l-.435.053v.805a162.622,162.622,0,0,1-.519,18.851c-.21,2.313-.615,4.608-.912,6.91a1.038,1.038,0,0,1-.874.962,41.344,41.344,0,0,1-8.059,1.55,1.909,1.909,0,0,1-1.5-.5c-7.2-6.23-12.392-13.743-14.846-23.027-.447-1.687-.668-3.436-.993-5.154A4.172,4.172,0,0,0,52.67,26.395Z" transform="translate(0)" fill="#495057"/>
    <path id="Path_7" data-name="Path 7" d="M37.978,106.371c.657,2.424,1.34,4.779,1.909,7.162a87.7,87.7,0,0,1,2.371,15.621c.05.763-.134.958-.9,1.107a5.421,5.421,0,0,1-2.959-.408c-.431-.157-.763-.233-1.122.16a1.382,1.382,0,0,1-.706.344,5.974,5.974,0,0,1-3.833-.374,1.038,1.038,0,0,0-.763,0,5.8,5.8,0,0,1-4.715-.061.664.664,0,0,1-.3-.481c-.1-.966-.195-1.935-.21-2.905a155.107,155.107,0,0,1,.584-16.847c.141-1.592.4-3.168.634-4.753.042-.305.023-.512-.309-.615a1.477,1.477,0,0,1-.439-.263.653.653,0,0,1-.191-.912.634.634,0,0,1,.889-.252,30.192,30.192,0,0,0,8.017,1.939,13.81,13.81,0,0,0,1.821.126c.458,0,.882.057.966.58S38.452,106.314,37.978,106.371Z" transform="translate(-1.991 -48.081)" fill="#495057"/>
    <path id="Path_8" data-name="Path 8" d="M136.461,106.652a3.469,3.469,0,0,1-.71-.947c-.115-.382.275-.695.817-.71a36.3,36.3,0,0,0,8.8-1.565,6.559,6.559,0,0,0,1.1-.466.66.66,0,0,1,.954.191.618.618,0,0,1-.252.97c-.733.282-.657.763-.588,1.382.344,3.054.729,6.108.886,9.162.195,3.844.2,7.7.248,11.544a28.021,28.021,0,0,1-.218,3.245.8.8,0,0,1-.435.557,5.632,5.632,0,0,1-4.707-.053.893.893,0,0,0-.676.073,5.982,5.982,0,0,1-3.844.351,1.035,1.035,0,0,1-.561-.256c-.435-.538-.889-.317-1.428-.195a11.922,11.922,0,0,1-2.741.34c-.8,0-.973-.321-.92-1.115a92,92,0,0,1,4.069-21.783C136.335,107.075,136.423,106.785,136.461,106.652Z" transform="translate(-67.189 -48.103)" fill="#495057"/>
  </g>
</svg>
