<svg xmlns="http://www.w3.org/2000/svg" width="46.316" height="46.315" viewBox="0 0 46.316 46.315">
  <path id="fb-02" d="M53.433,30.583A23.158,23.158,0,1,1,30.684,54.076,23.158,23.158,0,0,1,53.433,30.583ZM56.087,50.29V47.548A1.092,1.092,0,0,1,57.3,46.3c.836-.034,1.628-.04,2.44-.06.5,0,.671-.151.671-.638v-3.39c0-.5-.168-.671-.651-.671-1.1,0-2.2-.027-3.3,0a5.642,5.642,0,0,0-3.615,1.342,5.725,5.725,0,0,0-1.91,4.423c-.027.977,0,1.95,0,2.957-.188,0-.336.023-.48.023H47.905c-.386,0-.671.151-.671.564v3.886c0,.362.218.54.584.54h3.108v9.672c0,.879.084.967.943.967h3.208c.883,0,.987-.1.987-1.007V55.831a4.064,4.064,0,0,1,.027-.55h3.3c.779,0,.866-.087.866-.849V51.223c0-.852-.077-.933-.923-.933Z" transform="translate(-30.682 -30.579)" fill="#fff"/>
</svg>
