<svg xmlns="http://www.w3.org/2000/svg" width="67.332" height="63.043" viewBox="0 0 67.332 63.043">
  <g id="gift" transform="translate(0 -16.308)">
    <g id="Group_2" data-name="Group 2" transform="translate(4.208 49.893)">
      <g id="Group_1" data-name="Group 1">
        <path id="Path_1" data-name="Path 1" d="M32,271.692v25.249a4.212,4.212,0,0,0,4.208,4.208H57.249V271.692Z" transform="translate(-32 -271.692)" fill="#495057"/>
      </g>
    </g>
    <g id="Group_4" data-name="Group 4" transform="translate(0 16.308)">
      <g id="Group_3" data-name="Group 3">
        <path id="Path_2" data-name="Path 2" d="M63.124,33.06H49.809a16.351,16.351,0,0,0,2.348-1.881,8.8,8.8,0,0,0,0-12.381,8.892,8.892,0,0,0-12.343,0c-1.826,1.831-6.666,9.283-6,14.262h-.3c.665-4.978-4.175-12.431-6-14.262a8.9,8.9,0,0,0-12.343,0,8.808,8.808,0,0,0,0,12.381,16.653,16.653,0,0,0,2.352,1.881H4.208A4.215,4.215,0,0,0,0,37.268v6.312a2.1,2.1,0,0,0,2.1,2.1H29.458V37.268h8.416v8.416H65.228a2.1,2.1,0,0,0,2.1-2.1V37.268A4.212,4.212,0,0,0,63.124,33.06Zm-33.914-.139a1.388,1.388,0,0,1-.779.139c-2.908,0-8.459-3.022-10.272-4.848a4.59,4.59,0,0,1,0-6.447,4.486,4.486,0,0,1,6.375,0C27.37,24.618,30.19,31.907,29.209,32.921Zm9.687.139c-.6,0-.774-.135-.774-.139-.981-1.014,1.839-8.3,4.675-11.156a4.534,4.534,0,0,1,6.375,6.447C47.36,30.038,41.809,33.06,38.9,33.06Z" transform="translate(0 -16.308)" fill="#495057"/>
      </g>
    </g>
    <g id="Group_6" data-name="Group 6" transform="translate(37.874 49.893)">
      <g id="Group_5" data-name="Group 5">
        <path id="Path_3" data-name="Path 3" d="M288,271.692V301.15h21.041a4.21,4.21,0,0,0,4.208-4.208V271.692Z" transform="translate(-288 -271.692)" fill="#495057"/>
      </g>
    </g>
  </g>
</svg>
