<svg id="instagram" xmlns="http://www.w3.org/2000/svg" width="46.316" height="46.316" viewBox="0 0 46.316 46.316">
  <path id="Path_9" data-name="Path 9" d="M216.016,211.508A4.508,4.508,0,1,1,211.508,207,4.508,4.508,0,0,1,216.016,211.508Zm0,0" transform="translate(-188.35 -188.35)" fill="#fff"/>
  <path id="Path_10" data-name="Path 10" d="M157.114,138.6a4.478,4.478,0,0,0-2.567-2.567,7.482,7.482,0,0,0-2.511-.465c-1.426-.065-1.854-.079-5.465-.079s-4.039.014-5.465.079a7.487,7.487,0,0,0-2.511.466,4.48,4.48,0,0,0-2.567,2.567,7.485,7.485,0,0,0-.465,2.511c-.065,1.426-.079,1.854-.079,5.465s.014,4.039.079,5.465a7.482,7.482,0,0,0,.465,2.511,4.478,4.478,0,0,0,2.567,2.567,7.473,7.473,0,0,0,2.511.466c1.426.065,1.853.079,5.465.079s4.039-.014,5.465-.079a7.473,7.473,0,0,0,2.511-.466,4.478,4.478,0,0,0,2.567-2.567,7.489,7.489,0,0,0,.466-2.511c.065-1.426.079-1.854.079-5.465s-.014-4.039-.079-5.465A7.473,7.473,0,0,0,157.114,138.6Zm-10.542,14.92a6.944,6.944,0,1,1,6.944-6.944A6.944,6.944,0,0,1,146.572,153.52Zm7.219-12.54a1.623,1.623,0,1,1,1.623-1.623A1.623,1.623,0,0,1,153.791,140.979Zm0,0" transform="translate(-123.414 -123.417)" fill="#fff"/>
  <path id="Path_11" data-name="Path 11" d="M23.158,0A23.158,23.158,0,1,0,46.316,23.158,23.16,23.16,0,0,0,23.158,0ZM36.375,28.64a9.756,9.756,0,0,1-.618,3.228,6.8,6.8,0,0,1-3.889,3.889,9.763,9.763,0,0,1-3.228.618c-1.418.065-1.871.08-5.482.08s-4.064-.016-5.483-.08a9.763,9.763,0,0,1-3.228-.618,6.8,6.8,0,0,1-3.889-3.889,9.754,9.754,0,0,1-.618-3.228c-.065-1.418-.081-1.871-.081-5.483s.015-4.064.08-5.482a9.757,9.757,0,0,1,.618-3.228,6.8,6.8,0,0,1,3.889-3.889,9.765,9.765,0,0,1,3.228-.618c1.418-.065,1.871-.08,5.482-.08s4.064.016,5.482.081a9.767,9.767,0,0,1,3.228.617,6.8,6.8,0,0,1,3.889,3.889,9.755,9.755,0,0,1,.618,3.228c.065,1.418.08,1.871.08,5.482S36.44,27.222,36.375,28.64Zm0,0" fill="#fff"/>
</svg>
