<svg xmlns="http://www.w3.org/2000/svg" width="71.03" height="79.879" viewBox="0 0 71.03 79.879">
  <path id="storage" d="M83.233,80.353v6.965a1.764,1.764,0,0,1-1.791,1.839,1.8,1.8,0,0,1-1.72-1.8c-.026-.406,0-.812,0-1.213v-5.7H30.187v6.4c-.022,1.478-.675,2.32-1.764,2.316s-1.764-.842-1.764-2.333c0-2.06,0-4.12-.04-6.175,0-.066-.066-.132-.15-.3H21.793c-1.711,0-2.3-.626-2.3-2.355V35.648c0-1.764.56-2.311,2.307-2.316H38.81A26.023,26.023,0,0,1,38,30.593c-.516-2.858-.957-5.734-1.438-8.588-.26-1.557.256-2.307,1.857-2.444,1.054-.088,2.122,0,3.088,0,.529-1.09,1.01-2.069,1.482-3.052.591-1.239-.622-3.158-2.263-3.577-.318-.084-.653-.115-.979-.168a1.593,1.593,0,0,1-1.522-1.482,1.681,1.681,0,0,1,1.323-1.91,4.376,4.376,0,0,1,2.219.11,7.5,7.5,0,0,1,4.437,3.913,27.93,27.93,0,0,1,3.348-.71A1.731,1.731,0,0,1,51.7,14.347c.053,1.1-.609,1.7-1.879,1.866a4.892,4.892,0,0,0-4.274,3.216c1.1.088,2.117.1,3.11.269a1.529,1.529,0,0,1,1.456,2.029q-.825,5.055-1.764,10.1a6.571,6.571,0,0,1-.781,1.539h40.25c2.272,0,2.7.441,2.7,2.7v41.7c0,2.091-.516,2.607-2.6,2.611Zm3.674-32.562V36.976H23.063V47.791ZM23.05,65.77H86.916V62.418H23.05ZM55.029,55.03H50.954a1.71,1.71,0,0,0-1.936,1.764c.013,1.063.732,1.725,1.976,1.734q4.023.026,8.046,0a1.717,1.717,0,0,0,1.932-1.764c-.013-1.054-.732-1.716-1.976-1.734C57.671,55,56.353,55.03,55.029,55.03Zm-.093,18.085h4.076a1.774,1.774,0,1,0,0-3.529H50.967a1.733,1.733,0,0,0-1.958,1.764c0,1.067.715,1.729,1.963,1.764Z" transform="translate(-19.49 -9.278)" fill="#495057"/>
</svg>
