<svg xmlns="http://www.w3.org/2000/svg" width="46.316" height="46.316" viewBox="0 0 46.316 46.316">
  <path id="twitter" d="M23.158,0A23.158,23.158,0,1,0,46.316,23.158,23.16,23.16,0,0,0,23.158,0ZM33.731,18.056q.015.342.015.687A15.021,15.021,0,0,1,18.623,33.866h0a15.045,15.045,0,0,1-8.147-2.388,10.811,10.811,0,0,0,1.268.073,10.665,10.665,0,0,0,6.6-2.275,5.321,5.321,0,0,1-4.966-3.692,5.3,5.3,0,0,0,2.4-.091,5.317,5.317,0,0,1-4.264-5.21c0-.024,0-.046,0-.068a5.279,5.279,0,0,0,2.407.665,5.32,5.32,0,0,1-1.646-7.1,15.091,15.091,0,0,0,10.956,5.554,5.318,5.318,0,0,1,9.058-4.847,10.661,10.661,0,0,0,3.375-1.29,5.336,5.336,0,0,1-2.337,2.94,10.6,10.6,0,0,0,3.052-.837A10.8,10.8,0,0,1,33.731,18.056Zm0,0" fill="#fff"/>
</svg>
