<svg xmlns="http://www.w3.org/2000/svg" width="77.191" height="54.676"><g data-name="Group 8"><g data-name="Group 7" fill="#495057"><path data-name="Path 4" d="M8.041 19.298h8.041a1.607 1.607 0 01-1.56-2l1-4a4.817 4.817 0 014.68-3.654h10.353a4.83 4.83 0 014.824 4.824v3.216a1.609 1.609 0 01-1.608 1.608h9.649a1.609 1.609 0 01-1.608-1.608v-3.211a4.83 4.83 0 014.824-4.824h10.353a4.817 4.817 0 014.677 3.654l1 4a1.607 1.607 0 01-1.56 2h8.041a1.609 1.609 0 001.608-1.608V8.041A8.052 8.052 0 0062.714 0h-48.24a8.052 8.052 0 00-8.041 8.041v9.649a1.609 1.609 0 001.608 1.608z"/><path data-name="Path 5" d="M69.15 22.514H8.041A8.052 8.052 0 000 30.555v22.514a1.608 1.608 0 103.216 0v-4.825h70.758v4.824a1.608 1.608 0 003.216 0V30.555a8.052 8.052 0 00-8.04-8.041zm4.824 22.514H3.216v-3.214h70.758v3.216z"/></g></g></svg>