<svg xmlns="http://www.w3.org/2000/svg" width="58.042" height="57.417"><g fill="#495057"><path data-name="Path 6" d="M29.169 1.362c-.382 1.943-.683 3.787-1.145 5.589a43.436 43.436 0 01-10.491 18.816c-1.42 1.527-3 2.924-4.547 4.337a1.6 1.6 0 01-1.069.382 34.636 34.636 0 01-8.608-1.661.931.931 0 01-.5-.653c-.363-2.447-.763-4.894-1-7.356a158.806 158.806 0 01-.5-18.965 3.5 3.5 0 00-.019-.428 1.771 1.771 0 01-.676-.076 1.271 1.271 0 01-.6-.634C-.07.331.214.079.606.022a4.081 4.081 0 01.573-.019h56.14c.412.027.7.221.722.657s-.241.657-.66.71l-.435.053v.805a162.622 162.622 0 01-.519 18.851c-.21 2.313-.615 4.608-.912 6.91a1.038 1.038 0 01-.874.962 41.344 41.344 0 01-8.059 1.55 1.909 1.909 0 01-1.5-.5c-7.2-6.23-12.392-13.743-14.846-23.027-.447-1.687-.668-3.436-.993-5.154a4.172 4.172 0 00-.074-.458z"/><path data-name="Path 7" d="M12.486 33.257c.657 2.424 1.34 4.779 1.909 7.162a87.7 87.7 0 012.371 15.621c.05.763-.134.958-.9 1.107a5.421 5.421 0 01-2.959-.408c-.431-.157-.763-.233-1.122.16a1.382 1.382 0 01-.706.344 5.974 5.974 0 01-3.833-.374 1.038 1.038 0 00-.763 0 5.8 5.8 0 01-4.715-.061.664.664 0 01-.3-.481c-.1-.966-.195-1.935-.21-2.905a155.107 155.107 0 01.584-16.847c.141-1.592.4-3.168.634-4.753.042-.305.023-.512-.309-.615a1.477 1.477 0 01-.439-.263.653.653 0 01-.191-.912.634.634 0 01.889-.252 30.192 30.192 0 008.017 1.939 13.81 13.81 0 001.821.126c.458 0 .882.057.966.58s-.27.775-.744.832z"/><path data-name="Path 8" d="M45.771 33.516a3.469 3.469 0 01-.71-.947c-.115-.382.275-.695.817-.71a36.3 36.3 0 008.8-1.565 6.559 6.559 0 001.1-.466.66.66 0 01.954.191.618.618 0 01-.252.97c-.733.282-.657.763-.588 1.382.344 3.054.729 6.108.886 9.162.195 3.844.2 7.7.248 11.544a28.021 28.021 0 01-.218 3.245.8.8 0 01-.435.557 5.632 5.632 0 01-4.707-.053.893.893 0 00-.676.073 5.982 5.982 0 01-3.844.351 1.035 1.035 0 01-.561-.256c-.435-.538-.889-.317-1.428-.195a11.922 11.922 0 01-2.741.34c-.8 0-.973-.321-.92-1.115a92 92 0 014.069-21.783c.08-.302.168-.592.206-.725z"/></g></svg>