<svg xmlns="http://www.w3.org/2000/svg" width="46.316" height="46.315"><path d="M22.751.004A23.158 23.158 0 11.002 23.497 23.158 23.158 0 0122.751.004zm2.654 19.707v-2.742a1.092 1.092 0 011.213-1.248c.836-.034 1.628-.04 2.44-.06.5 0 .671-.151.671-.638v-3.39c0-.5-.168-.671-.651-.671-1.1 0-2.2-.027-3.3 0a5.642 5.642 0 00-3.615 1.342 5.725 5.725 0 00-1.91 4.423c-.027.977 0 1.95 0 2.957-.188 0-.336.023-.48.023h-2.55c-.386 0-.671.151-.671.564v3.886c0 .362.218.54.584.54h3.108v9.672c0 .879.084.967.943.967h3.208c.883 0 .987-.1.987-1.007v-9.077a4.064 4.064 0 01.027-.55h3.3c.779 0 .866-.087.866-.849v-3.209c0-.852-.077-.933-.923-.933z" fill="#fff"/></svg>