<svg xmlns="http://www.w3.org/2000/svg" width="67.332" height="63.043"><g data-name="Group 2"><g data-name="Group 1"><path data-name="Path 1" d="M4.208 33.585v25.249a4.212 4.212 0 004.208 4.208h21.041V33.585z" fill="#495057"/></g></g><g data-name="Group 4"><g data-name="Group 3"><path data-name="Path 2" d="M63.124 16.752H49.809a16.351 16.351 0 002.348-1.881 8.8 8.8 0 000-12.381 8.892 8.892 0 00-12.343 0c-1.826 1.831-6.666 9.283-6 14.262h-.3c.665-4.978-4.175-12.431-6-14.262a8.9 8.9 0 00-12.343 0 8.808 8.808 0 000 12.381 16.653 16.653 0 002.352 1.881H4.208A4.215 4.215 0 000 20.96v6.312a2.1 2.1 0 002.1 2.1h27.358V20.96h8.416v8.416h27.354a2.1 2.1 0 002.1-2.1V20.96a4.212 4.212 0 00-4.204-4.208zm-33.914-.139a1.388 1.388 0 01-.779.139c-2.908 0-8.459-3.022-10.272-4.848a4.59 4.59 0 010-6.447 4.486 4.486 0 016.375 0c2.836 2.853 5.656 10.142 4.675 11.156zm9.687.139c-.6 0-.774-.135-.774-.139-.981-1.014 1.839-8.3 4.675-11.156a4.534 4.534 0 016.375 6.447c-1.813 1.826-7.364 4.848-10.273 4.848z" fill="#495057"/></g></g><g data-name="Group 6"><g data-name="Group 5"><path data-name="Path 3" d="M37.874 33.585v29.458h21.041a4.21 4.21 0 004.208-4.208v-25.25z" fill="#495057"/></g></g></svg>