<svg xmlns="http://www.w3.org/2000/svg" width="46.316" height="46.316"><path data-name="Path 9" d="M27.666 23.158a4.508 4.508 0 11-4.508-4.508 4.508 4.508 0 014.508 4.508zm0 0" fill="#fff"/><path data-name="Path 10" d="M33.7 15.183a4.478 4.478 0 00-2.567-2.567 7.482 7.482 0 00-2.511-.465c-1.426-.065-1.854-.079-5.465-.079s-4.039.014-5.465.079a7.487 7.487 0 00-2.511.466 4.48 4.48 0 00-2.567 2.567 7.485 7.485 0 00-.465 2.511c-.065 1.426-.079 1.854-.079 5.465s.014 4.039.079 5.465a7.482 7.482 0 00.465 2.511 4.478 4.478 0 002.567 2.567 7.473 7.473 0 002.511.466c1.426.065 1.853.079 5.465.079s4.039-.014 5.465-.079a7.473 7.473 0 002.511-.466 4.478 4.478 0 002.567-2.567 7.489 7.489 0 00.466-2.511c.065-1.426.079-1.854.079-5.465s-.014-4.039-.079-5.465a7.473 7.473 0 00-.466-2.512zm-10.542 14.92a6.944 6.944 0 116.944-6.944 6.944 6.944 0 01-6.944 6.944zm7.219-12.54A1.623 1.623 0 1132 15.94a1.623 1.623 0 01-1.623 1.622zm0 0" fill="#fff"/><path data-name="Path 11" d="M23.158 0a23.158 23.158 0 1023.158 23.158A23.16 23.16 0 0023.158 0zm13.217 28.64a9.756 9.756 0 01-.618 3.228 6.8 6.8 0 01-3.889 3.889 9.763 9.763 0 01-3.228.618c-1.418.065-1.871.08-5.482.08s-4.064-.016-5.483-.08a9.763 9.763 0 01-3.228-.618 6.8 6.8 0 01-3.889-3.889 9.754 9.754 0 01-.618-3.228c-.065-1.418-.081-1.871-.081-5.483s.015-4.064.08-5.482a9.757 9.757 0 01.618-3.228 6.8 6.8 0 013.889-3.889 9.765 9.765 0 013.228-.618c1.418-.065 1.871-.08 5.482-.08s4.064.016 5.482.081a9.767 9.767 0 013.228.617 6.8 6.8 0 013.889 3.889 9.755 9.755 0 01.618 3.228c.065 1.418.08 1.871.08 5.482s-.013 4.065-.078 5.483zm0 0" fill="#fff"/></svg>