<svg xmlns="http://www.w3.org/2000/svg" width="71.03" height="79.879"><path d="M63.743 71.075v6.965a1.764 1.764 0 01-1.791 1.839 1.8 1.8 0 01-1.72-1.8c-.026-.406 0-.812 0-1.213v-5.7H10.697v6.4c-.022 1.478-.675 2.32-1.764 2.316s-1.764-.842-1.764-2.333c0-2.06 0-4.12-.04-6.175 0-.066-.066-.132-.15-.3H2.303c-1.711 0-2.3-.626-2.3-2.355V26.37c0-1.764.56-2.311 2.307-2.316h17.01a26.023 26.023 0 01-.81-2.739c-.516-2.858-.957-5.734-1.438-8.588-.26-1.557.256-2.307 1.857-2.444 1.054-.088 2.122 0 3.088 0 .529-1.09 1.01-2.069 1.482-3.052.591-1.239-.622-3.158-2.263-3.577-.318-.084-.653-.115-.979-.168a1.593 1.593 0 01-1.522-1.482 1.681 1.681 0 011.323-1.91 4.376 4.376 0 012.219.11 7.5 7.5 0 014.437 3.913 27.93 27.93 0 013.348-.71 1.731 1.731 0 012.148 1.662c.053 1.1-.609 1.7-1.879 1.866a4.892 4.892 0 00-4.274 3.216c1.1.088 2.117.1 3.11.269a1.529 1.529 0 011.456 2.029q-.825 5.055-1.764 10.1a6.571 6.571 0 01-.781 1.539h40.25c2.272 0 2.7.441 2.7 2.7v41.7c0 2.091-.516 2.607-2.6 2.611zm3.674-32.562V27.698H3.573v10.815zM3.56 56.492h63.866V53.14H3.56zm31.979-10.74h-4.075a1.71 1.71 0 00-1.936 1.764c.013 1.063.732 1.725 1.976 1.734q4.023.026 8.046 0a1.717 1.717 0 001.932-1.764c-.013-1.054-.732-1.716-1.976-1.734-1.325-.03-2.643 0-3.967 0zm-.093 18.085h4.076a1.774 1.774 0 100-3.529h-8.045a1.733 1.733 0 00-1.958 1.764c0 1.067.715 1.729 1.963 1.764z" fill="#495057"/></svg>