<svg xmlns="http://www.w3.org/2000/svg" width="46.316" height="46.316"><path d="M23.158 0a23.158 23.158 0 1023.158 23.158A23.16 23.16 0 0023.158 0zm10.573 18.056q.015.342.015.687a15.021 15.021 0 01-15.123 15.123 15.045 15.045 0 01-8.147-2.388 10.811 10.811 0 001.268.073 10.665 10.665 0 006.6-2.275 5.321 5.321 0 01-4.966-3.692 5.3 5.3 0 002.4-.091 5.317 5.317 0 01-4.264-5.21v-.068a5.279 5.279 0 002.407.665 5.32 5.32 0 01-1.646-7.1 15.091 15.091 0 0010.956 5.554 5.318 5.318 0 019.058-4.847 10.661 10.661 0 003.375-1.29 5.336 5.336 0 01-2.337 2.94 10.6 10.6 0 003.052-.837 10.8 10.8 0 01-2.648 2.756zm0 0" fill="#fff"/></svg>